<svg id="svg" version="1.1" xmlns="http://www.w3.org/2000/svg" xmlns:xlink="http://www.w3.org/1999/xlink" width="400" height="400" viewBox="0, 0, 400,400"><g id="svgg"><path id="path0" d="M203.223 49.609 C 202.045 50.791,200.992 51.758,200.884 51.758 C 200.776 51.758,199.051 53.392,197.051 55.390 L 193.415 59.022 196.032 61.470 C 199.492 64.707,199.901 65.633,198.416 66.883 C 197.078 68.009,196.590 67.777,192.714 64.178 L 190.408 62.036 184.950 67.492 C 181.948 70.492,179.514 73.009,179.541 73.084 C 179.568 73.159,182.051 75.616,185.059 78.544 C 191.489 84.803,191.309 84.596,191.309 85.705 C 191.309 87.319,189.591 88.210,188.184 87.326 C 187.861 87.124,185.117 84.531,182.084 81.565 C 179.052 78.599,176.502 76.172,176.419 76.172 C 176.335 76.172,173.612 78.831,170.367 82.080 L 164.466 87.988 167.116 90.430 C 170.389 93.445,170.757 94.082,170.034 95.479 C 169.064 97.355,167.833 96.931,164.104 93.439 L 161.621 91.113 156.213 96.582 L 150.805 102.051 156.368 107.324 C 163.010 113.621,163.269 113.981,162.154 115.358 C 160.591 117.288,160.632 117.316,149.752 106.848 L 147.837 105.005 142.326 110.461 L 136.816 115.918 139.600 118.673 L 142.383 121.428 142.383 122.350 C 142.383 124.101,140.679 124.997,139.160 124.046 C 138.838 123.844,137.522 122.592,136.235 121.263 L 133.896 118.848 128.618 124.121 L 123.340 129.395 129.139 135.156 C 132.962 138.956,134.982 141.101,135.068 141.455 C 135.396 142.805,134.500 143.945,133.110 143.945 C 132.008 143.945,132.092 144.017,125.389 137.365 L 120.407 132.422 115.038 137.809 L 109.668 143.195 112.235 145.670 C 115.516 148.833,115.825 149.463,114.734 150.760 C 113.508 152.217,112.677 151.912,109.329 148.771 L 106.611 146.222 101.210 151.623 L 95.809 157.024 101.615 162.852 L 107.422 168.680 107.422 169.609 C 107.422 171.315,105.689 172.285,104.292 171.360 C 104.026 171.185,101.332 168.577,98.306 165.566 L 92.804 160.091 92.154 160.638 L 91.504 161.185 110.531 180.185 L 129.558 199.185 183.237 145.638 C 212.761 116.186,238.380 90.566,240.169 88.704 L 243.422 85.317 224.495 66.389 C 214.084 55.979,205.522 47.461,205.466 47.461 C 205.410 47.461,204.401 48.428,203.223 49.609 M241.211 91.851 C 241.211 91.880,241.892 92.561,242.725 93.364 L 244.238 94.824 242.778 93.311 C 241.422 91.905,241.211 91.708,241.211 91.851 M255.078 105.718 C 255.078 105.747,255.759 106.428,256.592 107.231 L 258.105 108.691 256.646 107.178 C 255.290 105.772,255.078 105.575,255.078 105.718 M269.141 119.780 C 269.141 119.810,269.822 120.491,270.654 121.294 L 272.168 122.754 270.708 121.240 C 269.352 119.834,269.141 119.637,269.141 119.780 M283.008 133.647 C 283.008 133.677,283.689 134.358,284.521 135.161 L 286.035 136.621 284.575 135.107 C 283.219 133.702,283.008 133.505,283.008 133.647 M296.875 147.515 C 296.875 147.544,297.556 148.225,298.389 149.028 L 299.902 150.488 298.442 148.975 C 297.086 147.569,296.875 147.372,296.875 147.515 M311.961 159.035 L 310.160 160.844 329.200 179.884 L 348.241 198.924 350.145 197.020 L 352.049 195.116 333.105 176.171 C 322.686 165.752,314.071 157.227,313.961 157.227 C 313.852 157.227,312.951 158.040,311.961 159.035 M214.892 256.104 L 157.812 313.184 176.807 332.174 L 195.801 351.165 202.148 344.944 L 208.496 338.724 206.250 336.604 C 202.210 332.791,202.044 332.540,202.632 331.133 C 203.495 329.067,204.964 329.506,208.553 332.904 C 210.088 334.358,211.407 335.547,211.484 335.547 C 211.561 335.547,214.062 333.107,217.042 330.126 L 222.461 324.705 216.686 318.944 C 209.743 312.018,209.509 311.650,211.154 310.266 C 212.694 308.970,212.459 308.800,221.584 317.817 L 225.491 321.679 231.443 315.725 L 237.395 309.771 234.706 307.207 C 231.147 303.812,230.817 303.129,232.109 301.836 C 233.466 300.479,234.105 300.742,237.666 304.124 L 240.320 306.645 245.795 301.223 L 251.270 295.801 250.394 295.020 C 248.495 293.324,239.927 284.893,239.704 284.500 C 238.717 282.760,240.771 280.702,242.503 281.696 C 242.973 281.966,254.102 292.585,254.102 292.764 C 254.102 292.828,256.584 290.418,259.619 287.409 L 265.137 281.937 262.759 279.572 C 259.551 276.381,259.184 275.727,259.865 274.410 C 260.880 272.448,262.456 272.993,265.757 276.446 L 268.089 278.886 273.252 273.720 C 276.092 270.879,278.507 268.555,278.620 268.555 C 278.732 268.555,276.284 266.028,273.180 262.939 C 266.574 256.367,266.191 255.756,267.814 254.391 C 269.328 253.116,269.775 253.414,276.510 260.188 L 281.633 265.341 286.963 260.010 L 292.294 254.680 289.701 252.088 C 286.899 249.286,286.543 248.552,287.395 247.336 C 288.502 245.754,289.779 246.189,292.820 249.186 L 295.332 251.660 300.640 246.338 C 303.559 243.411,306.055 241.016,306.186 241.016 C 306.316 241.016,303.946 238.504,300.917 235.434 C 294.180 228.606,294.114 228.503,295.586 227.031 C 297.084 225.533,297.424 225.753,303.979 232.459 L 309.228 237.828 309.661 237.420 L 310.094 237.012 291.131 218.018 C 280.702 207.571,272.125 199.023,272.071 199.023 C 272.017 199.023,246.286 224.710,214.892 256.104 M51.318 201.319 L 49.222 203.422 68.258 222.457 L 87.294 241.492 89.409 239.408 L 91.524 237.324 72.469 218.270 L 53.414 199.216 51.318 201.319 M145.215 291.211 C 146.069 292.070,146.812 292.773,146.866 292.773 C 146.920 292.773,146.264 292.070,145.410 291.211 C 144.556 290.352,143.813 289.648,143.759 289.648 C 143.705 289.648,144.361 290.352,145.215 291.211 M157.617 303.569 C 157.617 303.599,158.298 304.280,159.131 305.083 L 160.645 306.543 159.185 305.029 C 157.829 303.623,157.617 303.427,157.617 303.569 " stroke="none" fill="#bb5c53" fill-rule="evenodd"></path><path id="path1" d="M177.458 66.390 L 158.530 85.318 160.515 87.426 C 162.724 89.771,162.696 89.715,162.000 90.442 L 161.500 90.964 164.044 93.364 C 167.828 96.935,169.057 97.369,170.034 95.479 C 170.757 94.082,170.389 93.445,167.116 90.430 L 164.466 87.988 170.367 82.080 C 173.612 78.831,176.335 76.172,176.419 76.172 C 176.502 76.172,179.052 78.599,182.084 81.565 C 185.117 84.531,187.861 87.124,188.184 87.326 C 189.591 88.210,191.309 87.319,191.309 85.705 C 191.309 84.596,191.489 84.803,185.059 78.544 C 182.051 75.616,179.568 73.159,179.541 73.084 C 179.514 73.009,181.948 70.492,184.950 67.492 L 190.408 62.036 192.714 64.178 C 196.590 67.777,197.078 68.009,198.416 66.883 C 199.901 65.633,199.492 64.707,196.032 61.470 L 193.415 59.022 197.098 55.344 L 200.780 51.665 198.684 49.563 C 197.532 48.407,196.543 47.461,196.487 47.461 C 196.432 47.461,187.868 55.979,177.458 66.390 M220.117 108.887 L 201.075 127.930 257.861 184.717 L 314.648 241.503 333.594 222.559 C 344.014 212.139,352.539 203.526,352.539 203.418 C 352.539 203.311,327.029 177.712,295.849 146.533 L 239.160 89.844 220.117 108.887 M149.053 103.388 L 147.627 104.824 153.233 110.175 C 159.289 115.957,159.587 116.208,160.413 116.210 C 162.558 116.215,163.203 114.052,161.572 112.328 C 160.268 110.949,150.758 101.953,150.605 101.953 C 150.535 101.953,149.837 102.599,149.053 103.388 M135.152 117.290 L 133.713 118.738 136.241 121.299 C 139.591 124.692,140.532 125.123,141.812 123.843 C 143.074 122.581,142.782 121.852,139.795 118.810 C 136.465 115.420,136.876 115.554,135.152 117.290 M121.667 130.774 L 120.221 132.230 124.515 136.543 C 132.256 144.318,133.066 144.882,134.474 143.474 C 135.913 142.034,135.686 141.673,129.333 135.289 C 122.535 128.459,123.438 128.991,121.667 130.774 M107.843 144.598 L 106.418 146.032 109.230 148.676 C 112.677 151.918,113.498 152.228,114.734 150.760 C 115.832 149.455,115.444 148.678,112.136 145.557 C 109.139 142.728,109.598 142.831,107.843 144.598 M67.676 175.586 L 48.731 194.532 105.664 251.465 L 162.597 308.398 181.640 289.352 L 200.684 270.305 143.832 213.473 C 112.564 182.215,86.899 156.641,86.800 156.641 C 86.701 156.641,78.095 165.166,67.676 175.586 M94.189 158.251 C 93.411 159.036,92.773 159.764,92.773 159.869 C 92.773 160.100,103.603 170.905,104.292 171.360 C 105.690 172.285,107.422 171.315,107.422 169.608 L 107.422 168.678 101.514 162.752 L 95.605 156.826 94.189 158.251 M295.586 227.031 C 294.867 227.750,294.718 228.616,295.173 229.427 C 295.471 229.958,306.163 240.820,306.388 240.820 C 306.478 240.820,307.188 240.180,307.965 239.398 L 309.378 237.976 303.964 232.448 C 297.417 225.764,297.075 225.542,295.586 227.031 M288.042 246.789 C 286.278 247.746,286.635 248.996,289.502 251.903 C 292.683 255.128,292.331 255.020,294.068 253.295 L 295.510 251.863 293.120 249.468 C 290.140 246.481,289.364 246.071,288.042 246.789 M267.814 254.391 C 267.154 254.946,266.912 255.814,267.202 256.592 C 267.412 257.157,278.465 268.359,278.813 268.359 C 279.063 268.359,281.641 265.781,281.641 265.531 C 281.641 265.282,271.573 255.173,270.625 254.471 C 269.639 253.740,268.621 253.711,267.814 254.391 M260.979 273.477 C 260.259 273.668,259.572 274.604,259.572 275.391 C 259.572 276.180,260.237 277.060,262.804 279.667 L 265.227 282.127 266.695 280.668 C 268.485 278.890,268.599 279.420,265.797 276.489 C 262.919 273.477,262.340 273.115,260.979 273.477 M240.396 281.780 C 239.506 282.332,239.188 283.583,239.704 284.507 C 240.030 285.092,250.976 295.703,251.253 295.703 C 251.531 295.703,254.102 293.131,254.102 292.852 C 254.102 292.614,243.117 282.049,242.503 281.696 C 241.922 281.363,241.010 281.399,240.396 281.780 M232.109 301.836 C 230.817 303.129,231.147 303.812,234.706 307.207 L 237.395 309.771 231.443 315.725 L 225.491 321.679 221.584 317.817 C 212.459 308.800,212.694 308.970,211.154 310.266 C 209.509 311.650,209.743 312.018,216.686 318.944 L 222.461 324.705 217.042 330.126 C 214.062 333.107,211.561 335.547,211.484 335.547 C 211.407 335.547,210.088 334.358,208.553 332.904 C 204.964 329.506,203.495 329.067,202.632 331.133 C 202.044 332.540,202.217 332.800,206.238 336.588 L 208.472 338.692 204.579 342.589 L 200.687 346.485 202.785 348.584 L 204.884 350.682 223.829 331.738 C 234.248 321.319,242.773 312.727,242.773 312.644 C 242.773 312.562,241.938 311.660,240.918 310.640 C 238.861 308.582,238.774 308.350,239.677 307.321 L 240.292 306.621 237.793 304.238 C 234.141 300.756,233.472 300.473,232.109 301.836 " stroke="none" fill="#3c3c3c" fill-rule="evenodd"></path><path id="path2" d="M387.682 6.559 C 387.265 7.061,387.488 8.984,387.962 8.984 C 388.115 8.984,388.899 7.636,388.957 7.273 C 389.072 6.559,388.122 6.028,387.682 6.559 M191.128 11.733 C 90.981 16.269,12.419 98.432,12.419 198.633 C 12.419 301.933,96.068 385.545,199.414 385.545 C 309.328 385.545,395.606 290.887,385.532 181.348 C 376.413 82.186,290.504 7.232,191.128 11.733 M198.776 49.460 L 200.977 51.654 203.224 49.413 L 205.472 47.171 224.560 66.260 L 243.649 85.348 241.455 87.549 L 239.261 89.749 274.707 125.195 L 310.153 160.640 311.965 158.836 C 312.961 157.843,313.863 157.031,313.969 157.031 C 314.074 157.031,322.729 165.600,333.201 176.073 L 352.242 195.114 350.340 197.023 L 348.438 198.933 350.586 201.074 C 351.768 202.252,352.734 203.306,352.734 203.415 C 352.734 203.524,344.166 212.182,333.693 222.655 L 314.651 241.696 312.405 239.456 L 310.158 237.216 274.915 272.451 C 255.531 291.831,239.534 307.763,239.367 307.857 C 238.793 308.178,239.066 308.624,241.016 310.547 C 242.090 311.606,242.969 312.545,242.969 312.633 C 242.969 312.722,234.400 321.363,223.926 331.836 L 204.884 350.877 202.786 348.779 L 200.688 346.681 198.293 349.070 L 195.898 351.460 176.855 332.421 C 166.382 321.949,157.813 313.294,157.813 313.188 C 157.813 313.081,158.840 311.964,160.096 310.704 L 162.380 308.415 126.947 272.955 L 91.515 237.496 89.408 239.596 L 87.302 241.696 68.260 222.655 C 57.787 212.182,49.219 203.527,49.219 203.422 C 49.219 203.316,50.118 202.327,51.217 201.224 L 53.216 199.218 50.877 196.873 L 48.538 194.528 67.627 175.440 L 86.716 156.351 89.015 158.644 C 90.280 159.906,91.388 160.937,91.478 160.938 C 91.763 160.938,162.500 90.114,162.500 89.829 C 162.500 89.680,161.556 88.610,160.402 87.453 L 158.304 85.349 177.345 66.307 C 187.818 55.834,196.429 47.266,196.481 47.266 C 196.533 47.266,197.566 48.253,198.776 49.460 M165.332 163.672 L 129.786 199.219 165.234 234.668 L 200.683 270.117 236.279 234.522 L 271.875 198.926 236.475 163.526 C 217.005 144.055,201.030 128.125,200.977 128.125 C 200.923 128.125,184.883 144.121,165.332 163.672 " stroke="none" fill="#ebebe3" fill-rule="evenodd"></path><path id="path3" d="M177.343 66.357 L 158.301 85.449 177.391 66.408 L 196.481 47.367 198.680 49.514 L 200.879 51.660 198.734 49.463 C 197.554 48.254,196.543 47.266,196.487 47.266 C 196.432 47.266,187.817 55.857,177.343 66.357 M159.863 86.914 C 160.609 87.666,161.264 88.281,161.318 88.281 C 161.371 88.281,160.805 87.666,160.059 86.914 C 159.312 86.162,158.658 85.547,158.604 85.547 C 158.551 85.547,159.117 86.162,159.863 86.914 M240.137 90.820 C 240.666 91.357,241.143 91.797,241.196 91.797 C 241.250 91.797,240.861 91.357,240.332 90.820 C 239.803 90.283,239.326 89.844,239.272 89.844 C 239.219 89.844,239.608 90.283,240.137 90.820 M249.512 100.195 C 252.518 103.203,255.022 105.664,255.076 105.664 C 255.129 105.664,252.713 103.203,249.707 100.195 C 246.701 97.188,244.197 94.727,244.143 94.727 C 244.090 94.727,246.505 97.188,249.512 100.195 M263.477 114.160 C 266.537 117.222,269.084 119.727,269.138 119.727 C 269.192 119.727,266.732 117.222,263.672 114.160 C 260.612 111.099,258.064 108.594,258.010 108.594 C 257.957 108.594,260.416 111.099,263.477 114.160 M277.441 128.125 C 280.448 131.133,282.951 133.594,283.005 133.594 C 283.059 133.594,280.643 131.133,277.637 128.125 C 274.630 125.117,272.127 122.656,272.073 122.656 C 272.019 122.656,274.435 125.117,277.441 128.125 M236.426 163.477 C 255.976 183.027,272.016 199.023,272.070 199.023 C 272.124 199.023,256.172 183.027,236.621 163.477 C 217.071 143.926,201.031 127.930,200.977 127.930 C 200.923 127.930,216.875 143.926,236.426 163.477 M291.309 141.992 C 294.315 145.000,296.819 147.461,296.872 147.461 C 296.926 147.461,294.510 145.000,291.504 141.992 C 288.498 138.984,285.994 136.523,285.940 136.523 C 285.886 136.523,288.302 138.984,291.309 141.992 M304.883 155.566 C 307.728 158.413,310.100 160.742,310.153 160.742 C 310.207 160.742,307.923 158.413,305.078 155.566 C 302.233 152.720,299.861 150.391,299.807 150.391 C 299.754 150.391,302.038 152.720,304.883 155.566 M67.578 175.488 L 48.537 194.531 50.976 196.924 L 53.416 199.316 51.075 196.922 L 48.734 194.528 67.725 175.537 L 86.716 156.546 89.110 158.888 L 91.504 161.230 89.163 158.838 C 87.876 157.522,86.777 156.445,86.721 156.445 C 86.666 156.445,78.051 165.015,67.578 175.488 M350.342 200.980 C 351.550 202.217,352.539 203.315,352.539 203.421 C 352.539 203.526,345.002 211.171,335.791 220.410 L 319.043 237.207 335.889 220.411 C 345.154 211.173,352.734 203.525,352.734 203.415 C 352.734 203.306,351.702 202.207,350.439 200.973 L 348.145 198.730 350.342 200.980 M165.137 234.766 C 184.687 254.316,200.727 270.313,200.781 270.313 C 200.835 270.313,184.883 254.316,165.332 234.766 C 145.781 215.215,129.742 199.219,129.688 199.219 C 129.634 199.219,145.586 215.215,165.137 234.766 M312.207 239.258 C 313.385 240.439,314.393 241.406,314.446 241.406 C 314.500 241.406,313.580 240.439,312.402 239.258 C 311.224 238.076,310.217 237.109,310.163 237.109 C 310.109 237.109,311.029 238.076,312.207 239.258 M110.742 256.738 C 121.323 267.319,130.024 275.977,130.077 275.977 C 130.131 275.977,121.518 267.319,110.938 256.738 C 100.357 246.157,91.656 237.500,91.602 237.500 C 91.549 237.500,100.162 246.157,110.742 256.738 M138.184 284.180 C 141.190 287.188,143.694 289.648,143.747 289.648 C 143.801 289.648,141.385 287.188,138.379 284.180 C 135.373 281.172,132.869 278.711,132.815 278.711 C 132.761 278.711,135.177 281.172,138.184 284.180 M152.148 298.145 C 155.101 301.099,157.561 303.516,157.615 303.516 C 157.668 303.516,155.296 301.099,152.344 298.145 C 149.391 295.190,146.931 292.773,146.878 292.773 C 146.824 292.773,149.196 295.190,152.148 298.145 M161.426 307.422 C 161.955 307.959,162.432 308.398,162.485 308.398 C 162.539 308.398,162.150 307.959,161.621 307.422 C 161.092 306.885,160.615 306.445,160.562 306.445 C 160.508 306.445,160.897 306.885,161.426 307.422 M240.812 310.596 C 241.622 311.458,241.797 311.613,241.797 311.466 C 241.797 311.435,241.379 311.018,240.869 310.539 L 239.941 309.668 240.812 310.596 M242.334 311.927 C 242.971 312.652,243.172 312.387,238.037 317.577 L 233.301 322.363 238.135 317.580 C 243.358 312.411,243.219 312.594,242.432 311.899 L 241.895 311.426 242.334 311.927 M202.536 348.486 C 204.437 350.436,204.688 350.675,204.688 350.534 C 204.688 350.505,203.743 349.560,202.588 348.434 L 200.488 346.387 202.536 348.486 " stroke="none" fill="#a19d9c" fill-rule="evenodd"></path><path id="path4" d="M203.109 49.514 C 201.864 50.748,200.896 51.758,200.957 51.758 C 201.018 51.758,202.059 50.770,203.270 49.562 L 205.472 47.367 224.463 66.358 L 243.454 85.348 241.210 87.645 L 238.967 89.941 241.309 87.646 L 243.651 85.351 224.609 66.308 C 214.136 55.835,205.523 47.267,205.469 47.268 C 205.415 47.269,204.353 48.280,203.109 49.514 M156.047 96.583 C 153.089 99.537,150.717 101.953,150.775 101.953 C 150.834 101.953,153.297 99.536,156.250 96.582 C 159.203 93.628,161.575 91.211,161.522 91.212 C 161.469 91.212,159.006 93.629,156.047 96.583 M142.183 110.400 C 139.226 113.381,136.854 115.820,136.911 115.820 C 137.073 115.820,147.747 105.100,147.647 105.037 C 147.599 105.006,145.139 107.419,142.183 110.400 M128.514 124.170 L 123.340 129.395 128.564 124.220 C 131.438 121.374,133.789 119.023,133.789 118.996 C 133.789 118.857,133.323 119.315,128.514 124.170 M165.234 163.623 L 129.590 199.316 165.283 163.672 C 198.468 130.532,201.064 127.930,200.928 127.930 C 200.901 127.930,184.839 143.992,165.234 163.623 M114.845 137.793 L 109.476 143.262 114.935 137.850 C 117.937 134.873,120.353 132.412,120.304 132.381 C 120.255 132.350,117.799 134.785,114.845 137.793 M101.073 151.611 L 95.801 156.934 101.123 151.662 C 106.069 146.762,106.533 146.289,106.395 146.289 C 106.368 146.289,103.973 148.684,101.073 151.611 M311.910 158.936 L 310.059 160.840 311.918 159.033 C 312.940 158.040,313.863 157.227,313.969 157.227 C 314.075 157.227,322.685 165.751,333.104 176.170 L 352.047 195.114 350.194 197.020 L 348.342 198.926 350.293 197.021 L 352.244 195.116 333.203 176.074 C 322.730 165.600,314.071 157.031,313.961 157.031 C 313.852 157.031,312.929 157.888,311.910 158.936 M91.932 160.651 C 91.631 160.916,91.462 161.133,91.557 161.133 C 91.651 161.133,91.935 160.913,92.188 160.645 C 92.771 160.023,92.642 160.026,91.932 160.651 M236.230 234.619 L 200.684 270.215 236.279 234.668 C 255.857 215.117,271.875 199.099,271.875 199.072 C 271.875 198.936,269.279 201.525,236.230 234.619 M51.168 201.318 L 49.121 203.418 51.221 201.371 C 52.375 200.245,53.320 199.300,53.320 199.271 C 53.320 199.130,53.070 199.368,51.168 201.318 M68.212 222.558 L 87.304 241.698 89.404 239.551 L 91.504 237.405 89.403 239.452 L 87.302 241.500 68.211 222.459 L 49.121 203.418 68.212 222.558 M309.566 237.407 C 309.189 237.862,309.458 237.948,309.862 237.501 C 310.057 237.286,310.126 237.109,310.015 237.109 C 309.904 237.109,309.702 237.243,309.566 237.407 M316.780 239.358 C 315.536 240.592,314.571 241.602,314.635 241.602 C 314.700 241.602,315.760 240.591,316.992 239.355 C 318.224 238.120,319.189 237.110,319.137 237.112 C 319.085 237.113,318.025 238.123,316.780 239.358 M300.691 246.282 C 297.796 249.178,295.472 251.592,295.525 251.645 C 295.579 251.699,298.036 249.329,300.984 246.379 C 303.933 243.429,306.257 241.016,306.150 241.016 C 306.042 241.016,303.586 243.385,300.691 246.282 M286.907 260.066 C 283.958 263.016,281.634 265.430,281.741 265.430 C 281.996 265.430,292.493 254.928,292.365 254.800 C 292.311 254.746,289.855 257.116,286.907 260.066 M273.250 273.723 C 270.409 276.566,268.128 278.935,268.182 278.989 C 268.235 279.043,270.648 276.717,273.543 273.821 C 276.437 270.924,278.718 268.555,278.611 268.555 C 278.503 268.555,276.091 270.880,273.250 273.723 M252.061 294.926 C 244.977 302.014,239.265 307.813,239.367 307.813 C 239.469 307.813,245.352 302.012,252.441 294.922 C 259.531 287.832,265.243 282.033,265.136 282.036 C 265.029 282.038,259.145 287.839,252.061 294.926 M145.801 291.992 C 146.330 292.529,146.807 292.969,146.860 292.969 C 146.914 292.969,146.525 292.529,145.996 291.992 C 145.467 291.455,144.990 291.016,144.937 291.016 C 144.883 291.016,145.272 291.455,145.801 291.992 M159.277 305.469 C 159.915 306.113,160.481 306.641,160.535 306.641 C 160.588 306.641,160.110 306.113,159.473 305.469 C 158.835 304.824,158.269 304.297,158.215 304.297 C 158.162 304.297,158.640 304.824,159.277 305.469 M160.059 310.742 C 158.773 312.031,157.765 313.086,157.819 313.086 C 157.872 313.086,158.968 312.031,160.254 310.742 C 161.540 309.453,162.548 308.398,162.494 308.398 C 162.440 308.398,161.344 309.453,160.059 310.742 M176.660 332.227 C 187.080 342.646,195.649 351.172,195.702 351.172 C 195.756 351.172,187.275 342.646,176.855 332.227 C 166.436 321.807,157.867 313.281,157.813 313.281 C 157.760 313.281,166.241 321.807,176.660 332.227 M219.040 336.524 C 211.197 344.365,204.825 350.781,204.881 350.781 C 204.936 350.781,211.397 344.365,219.238 336.523 C 227.080 328.682,233.451 322.266,233.398 322.266 C 233.345 322.266,226.884 328.682,219.040 336.524 M198.145 348.828 C 196.866 350.110,195.864 351.203,195.918 351.256 C 195.971 351.310,197.061 350.305,198.340 349.023 C 199.618 347.742,200.620 346.649,200.567 346.595 C 200.513 346.542,199.423 347.546,198.145 348.828 " stroke="none" fill="#d29e98" fill-rule="evenodd"></path></g></svg>